<!--?xml version="1.0" standalone="no"?-->
              <svg id="sw-js-blob-svg" viewBox="0 0 100 100" xmlns="http://www.w3.org/2000/svg" version="1.1">
                    <defs> 
                        <linearGradient id="sw-gradient" x1="0" x2="1" y1="1" y2="0">
                            <stop id="stop1" stop-color="rgba(240, 247, 241, 1)" offset="0%"></stop>
                            <stop id="stop2" stop-color="rgba(240, 247, 241, 1)" offset="100%"></stop>
                        </linearGradient>
                    </defs>
                <path fill="url(#sw-gradient)" d="M15.2,-17.3C21.5,-12.8,29.6,-9.7,33.6,-3.5C37.5,2.7,37.3,12.1,32.9,18.2C28.4,24.3,19.7,27.2,10.6,31.5C1.6,35.7,-7.7,41.3,-15,39.5C-22.4,37.6,-27.6,28.3,-30.4,19.5C-33.1,10.7,-33.3,2.4,-29.6,-2.9C-25.9,-8.1,-18.2,-10.3,-12.6,-14.9C-7,-19.5,-3.5,-26.4,0.5,-26.9C4.4,-27.5,8.9,-21.7,15.2,-17.3Z" width="100%" height="100%" transform="translate(50 50)" stroke-width="0" style="transition: 0.3s;"></path>
              </svg>